# xmcd CD database file
#
# Track frame offsets:
#	150
#	15890
#	30139
#	53626
#	69256
#	85326
#	103325
#	119239
#	136255
#	152717
#	160697
#	182391
#	189735
#	203754
#	219841
#	233168
#
# Disc length: 3347 seconds
#
# Revision: 0
# Processed by: cddbd v1.5.2PL0 Copyright (c) Steve Scherf et al.
# Submitted via: CDex 1.51
#
DISCID=c60d1110
DTITLE=Caroll Vanwelden - Sings Shakespeare Sonnets 3
DYEAR=2017
DGENRE=Jazz
TTITLE0=My mistress` eyes - sonnet 130
TTITLE1=Shall I compare thee - sonnet 18
TTITLE2=What`s in the brain - sonnet 108
TTITLE3=That time of year - sonnet 73
TTITLE4=To me fair friend - sonnet 104
TTITLE5=Alas, `tis true - sonnet 110
TTITLE6=No longer mourn for me - sonnet 71
TTITLE7=In the old age - sonnet 127
TTITLE8=From fairest creatures - sonnet 1
TTITLE9=Say that thou didst forsake me - sonnet 89
TTITLE10=Some say thy fault is youth - sonnet 96
TTITLE11=Like as the waves - sonnet 60
TTITLE12=Tired with all these - sonnet 66
TTITLE13=What potions have I drunk - sonnet 119
TTITLE14=When in disgrace with fortune - sonnet 29
TTITLE15=When my love swears - sonnet 138
EXTD=YEAR: 2017
EXTT0=
EXTT1=
EXTT2=
EXTT3=
EXTT4=
EXTT5=
EXTT6=
EXTT7=
EXTT8=
EXTT9=
EXTT10=
EXTT11=
EXTT12=
EXTT13=
EXTT14=
EXTT15=
PLAYORDER=
